<?xml version="1.0" encoding="UTF-8"?>
<svg width="1017px" height="1442px" viewBox="0 0 1017 1442" version="1.1" xmlns="http://www.w3.org/2000/svg" xmlns:xlink="http://www.w3.org/1999/xlink">
    <!-- Generator: Sketch 43.2 (39069) - http://www.bohemiancoding.com/sketch -->
    <title>UK-Prison-Category-A</title>
    <desc>Created with Sketch.</desc>
    <defs></defs>
    <g id="Page-1" stroke="none" stroke-width="1" fill="none" fill-rule="evenodd">
        <g id="UK-Prison-Category-A" transform="translate(-1.000000, 0.000000)">
            <g id="Group" transform="translate(0.933965, 0.091159)" fill-rule="nonzero" fill="#FFFFFF">
                <g id="Shape">
                    <path d="M192.481203,232.517293 C219.428571,244.066165 251.765414,230.977444 262.544361,204.030075 C274.093233,176.312782 261.004511,143.97594 232.517293,133.196992 C204.8,122.418045 174.003008,135.506767 162.454135,163.22406 C151.675188,190.171429 164.76391,220.968421 192.481203,232.517293 L192.481203,232.517293 Z M69.2932331,304.120301 C97.0105263,315.669173 129.347368,302.580451 140.126316,275.633083 C151.675188,247.915789 138.586466,215.578947 110.099248,205.569925 C82.3819549,194.021053 51.5849624,207.109774 40.0360902,234.827068 C29.2571429,261.774436 42.3458647,292.571429 69.2932331,304.120301 L69.2932331,304.120301 Z M33.8766917,440.396992 C60.8240602,451.945865 93.1609023,438.857143 103.93985,411.13985 C115.488722,383.422556 102.4,351.855639 73.912782,341.076692 C46.9654135,329.52782 15.3984962,343.386466 3.84962406,370.333835 C-6.92932331,397.281203 6.1593985,428.84812 33.8766917,440.396992 L33.8766917,440.396992 Z M328.757895,275.633083 C355.705263,287.181955 388.042105,274.093233 398.821053,246.37594 C410.369925,218.658647 397.281203,187.091729 368.793985,176.312782 C341.076692,164.76391 310.279699,178.622556 298.730827,205.569925 C288.721805,233.287218 301.810526,264.854135 328.757895,275.633083 L328.757895,275.633083 Z M824.589474,232.517293 C796.87218,244.066165 764.535338,230.977444 754.526316,204.030075 C742.977444,176.312782 756.066165,143.97594 783.783459,133.196992 C811.500752,122.418045 843.067669,135.506767 854.616541,163.22406 C864.625564,190.171429 851.536842,220.968421 824.589474,232.517293 L824.589474,232.517293 Z M947.007519,304.120301 C919.290226,315.669173 887.723308,302.580451 876.944361,275.633083 C865.395489,247.915789 878.484211,215.578947 905.431579,205.569925 C933.148872,194.021053 964.715789,207.109774 976.264662,234.827068 C987.813534,261.774436 973.954887,292.571429 947.007519,304.120301 L947.007519,304.120301 Z M983.193985,440.396992 C955.476692,451.945865 923.13985,438.857143 912.360902,411.13985 C900.81203,383.422556 913.900752,351.855639 942.38797,341.076692 C970.105263,329.52782 1001.67218,343.386466 1013.22105,370.333835 C1023.23008,397.281203 1010.14135,428.84812 983.193985,440.396992 L983.193985,440.396992 Z M687.542857,275.633083 C659.825564,287.181955 627.488722,274.093233 616.709774,246.37594 C605.930827,218.658647 618.249624,187.091729 646.736842,176.312782 C674.454135,164.76391 706.021053,178.622556 717.569925,205.569925 C728.348872,233.287218 715.26015,264.854135 687.542857,275.633083 L687.542857,275.633083 Z M536.637594,136.276692 L536.637594,136.276692 L605.160902,172.463158 L605.160902,71.6030075 L536.637594,93.1609023 L536.637594,93.1609023 C535.097744,90.8511278 532.78797,88.5413534 529.708271,86.2315789 L529.708271,86.2315789 L557.425564,0 L508.150376,0 L458.875188,0 L485.822556,86.2315789 L485.822556,86.2315789 C483.512782,88.5413534 481.203008,90.081203 478.893233,93.1609023 L478.893233,93.1609023 L411.13985,71.6030075 L411.13985,172.463158 L478.893233,136.276692 L478.893233,136.276692 C481.203008,138.586466 483.512782,141.666165 485.822556,143.206015 L447.326316,261.774436 C447.326316,261.774436 447.326316,261.774436 447.326316,262.544361 L447.326316,262.544361 L447.326316,262.544361 C445.786466,268.703759 444.246617,274.863158 444.246617,281.022556 C444.246617,312.589474 468.114286,338.766917 498.141353,343.386466 L499.681203,343.386466 C501.990977,343.386466 505.070677,344.156391 507.380451,344.156391 C510.46015,344.156391 512.769925,344.156391 515.079699,343.386466 L516.619549,343.386466 C547.416541,338.766917 571.284211,311.819549 571.284211,281.022556 C571.284211,274.863158 570.514286,267.933835 568.204511,262.544361 L568.204511,262.544361 L568.204511,262.544361 C568.204511,262.544361 568.204511,262.544361 568.204511,261.774436 L528.938346,143.206015 C532.018045,141.666165 534.32782,138.586466 536.637594,136.276692 L536.637594,136.276692 Z M508.150376,714.490226 C638.267669,714.490226 760.685714,722.959398 870.784962,739.12782 C901.581955,609.010526 939.308271,533.557895 978.574436,481.203008 L904.661654,455.025564 C912.360902,492.75188 913.130827,510.46015 904.661654,533.557895 C893.112782,522.778947 881.56391,500.451128 872.324812,466.574436 L836.138346,585.142857 C857.696241,569.744361 874.634586,560.505263 893.882707,559.735338 C860.006015,632.108271 816.890226,651.356391 789.172932,645.966917 C756.066165,639.807519 740.667669,610.550376 746.057143,585.142857 C753.756391,548.956391 789.942857,539.717293 807.651128,581.293233 C840.757895,514.309774 784.553383,493.521805 749.136842,513.53985 C803.801504,458.105263 809.960902,409.6 765.305263,351.085714 C703.711278,398.051128 702.941353,445.786466 730.658647,511.230075 C694.47218,469.654135 637.497744,491.981955 657.515789,558.965414 C683.693233,518.929323 718.33985,543.566917 712.950376,582.833083 C708.330827,615.93985 663.675188,642.887218 609.010526,638.267669 C529.708271,631.338346 525.088722,576.673684 522.778947,532.018045 C542.027068,528.168421 577.443609,545.876692 607.470677,588.222556 L617.479699,461.954887 C585.912782,495.831579 555.885714,502.760902 522.778947,503.530827 C533.557895,469.654135 584.372932,414.219549 584.372932,414.219549 L511.230075,414.219549 L511.230075,414.219549 L511.230075,414.219549 L427.308271,414.219549 C427.308271,414.219549 476.583459,469.654135 488.132331,503.530827 C455.795489,502.760902 426.538346,495.831579 393.431579,461.954887 L404.210526,588.222556 C434.237594,545.876692 469.654135,528.938346 488.132331,532.018045 C485.822556,576.673684 481.203008,630.568421 402.670677,638.267669 C347.23609,642.887218 303.350376,615.93985 298.730827,582.833083 C293.341353,544.336842 327.98797,518.929323 353.395489,558.965414 C374.183459,491.981955 317.978947,469.654135 281.022556,511.230075 C309.509774,445.786466 308.73985,398.051128 245.606015,351.085714 C200.950376,409.6 207.109774,458.105263 262.544361,513.53985 C226.357895,493.521805 170.923308,514.309774 203.26015,581.293233 C220.968421,538.947368 257.924812,548.956391 265.62406,585.142857 C271.013534,610.550376 255.615038,639.807519 221.738346,645.966917 C194.790977,651.356391 152.445113,632.108271 117.798496,559.735338 C137.046617,560.505263 153.984962,569.744361 175.542857,585.142857 L139.356391,466.574436 C130.117293,500.451128 118.568421,522.009023 106.249624,533.557895 C97.7804511,510.46015 99.3203008,492.75188 106.249624,455.025564 L33.1067669,481.203008 C71.6030075,534.32782 109.329323,609.780451 140.896241,739.12782 C254.845113,722.959398 378.033083,714.490226 508.150376,714.490226 L508.150376,714.490226 Z"></path>
                </g>
            </g>
            <path d="M149.569412,765.009664 C149.569412,765.009664 285.793385,737.157514 508.454815,738.867274 C731.116245,740.577034 866.074807,765.009664 866.074807,765.009664 C866.074807,765.009664 832.639963,881.907567 814.160252,989.131693 C795.680542,1096.35582 789.397059,1209.91406 789.397059,1209.91406 C789.397059,1209.91406 695.119764,1272.46882 651.321511,1308.51792 C607.523258,1344.56703 508.454815,1441.14967 508.454815,1441.14967 C508.454815,1441.14967 414.262578,1344.68146 369.60256,1308.51792 C324.942541,1272.35439 222.891278,1209.91406 222.891278,1209.91406 C222.891278,1209.91406 208.504293,1057.85468 197.178494,989.131693 C185.852695,920.408704 149.569412,765.009664 149.569412,765.009664 Z" id="Path-2" fill="#FFFFFF"></path>
            <text id="A" font-family="Monaco" font-size="350" font-weight="normal" letter-spacing="-40.8916512" fill="#000824">
                <tspan x="405.942023" y="1100.12911">A</tspan>
            </text>
        </g>
    </g>
</svg>